<svg width="100" height="100" viewBox="0 0 100 100" fill="none" xmlns="http://www.w3.org/2000/svg">
  <g>
    <!-- Base layer for glow effect -->
    <path d="M85 35 L65 35 L65 15 L85 15 L85 65 L65 65 L65 45 L85 45" 
          fill="#121212" />
    <path d="M55 45 L35 45 L35 25 L55 25 L55 75 L35 75 L35 55 L55 55" 
          fill="#121212" />
    <path d="M25 55 L5 55 L5 35 L25 35 L25 85 L5 85 L5 65 L25 65" 
          fill="#121212" />
          
    <!-- Neon glow layer -->
    <path d="M85 35 L65 35 L65 15 L85 15 L85 65 L65 65 L65 45 L85 45" 
          stroke="#00ff66" stroke-width="2" stroke-linejoin="round" />
    <path d="M55 45 L35 45 L35 25 L55 25 L55 75 L35 75 L35 55 L55 55" 
          stroke="#00ff66" stroke-width="2" stroke-linejoin="round" />
    <path d="M25 55 L5 55 L5 35 L25 35 L25 85 L5 85 L5 65 L25 65" 
          stroke="#00ff66" stroke-width="2" stroke-linejoin="round" />
    
    <!-- Inner glow -->
    <path d="M85 35 L65 35 L65 15 L85 15 L85 65 L65 65 L65 45 L85 45" 
          stroke="#00ff66" stroke-width="0.5" stroke-opacity="0.7" stroke-linejoin="round" />
    <path d="M55 45 L35 45 L35 25 L55 25 L55 75 L35 75 L35 55 L55 55" 
          stroke="#00ff66" stroke-width="0.5" stroke-opacity="0.7" stroke-linejoin="round" />
    <path d="M25 55 L5 55 L5 35 L25 35 L25 85 L5 85 L5 65 L25 65" 
          stroke="#00ff66" stroke-width="0.5" stroke-opacity="0.7" stroke-linejoin="round" />
          
    <!-- Subtle fill -->
    <path d="M85 35 L65 35 L65 15 L85 15 L85 65 L65 65 L65 45 L85 45" 
          fill="#00ff66" fill-opacity="0.1" />
    <path d="M55 45 L35 45 L35 25 L55 25 L55 75 L35 75 L35 55 L55 55" 
          fill="#00ff66" fill-opacity="0.1" />
    <path d="M25 55 L5 55 L5 35 L25 35 L25 85 L5 85 L5 65 L25 65" 
          fill="#00ff66" fill-opacity="0.1" />
  </g>
  
  <!-- SVG filters for glow effect -->
  <defs>
    <filter id="glow" x="-50%" y="-50%" width="200%" height="200%">
      <feGaussianBlur stdDeviation="2.5" result="blur" />
      <feMerge>
        <feMergeNode in="blur" />
        <feMergeNode in="SourceGraphic" />
      </feMerge>
    </filter>
  </defs>
  
  <!-- Apply filter to the entire group -->
  <g filter="url(#glow)"></g>
</svg> 